# xmcd CD database file
#
# Track frame offsets:
#	150
#	18880
#	51015
#	72252
#	89537
#	119102
#
# Disc length: 1915 seconds
#
# Revision: 1
# Processed by: cddbd v1.5.1PL2 Copyright (c) Steve Scherf et al.
# Submitted via: CDex 1.60beta1
#
DISCID=4e077906
DTITLE=Super Guitar Trio - Passion, Grace and Fire
DYEAR=1983
DGENRE=Jazz
TTITLE0=Aspan
TTITLE1=Orient Blue Suite
TTITLE2=Chiquito
TTITLE3=Sichia
TTITLE4=David
TTITLE5=Passion, Grace and Fire
EXTD=YEAR: 1983
EXTT0=
EXTT1=
EXTT2=
EXTT3=
EXTT4=
EXTT5=
PLAYORDER=
